#!OML:ASF H:\ManfredObstacles\Project 1\Capture day 2\Session 1\male.ASF
:FULLY-SPECIFIED
:DEGREES
592
root 2.2923 16.4493 -30.9263 -162.249 2.57129 -179.665
lowerback -0.102996 3.74499 -3.42343
upperback -0.300102 4.99716 -0.808646
thorax -0.469872 2.51125 1.05506
lowerneck -34.8308 -0.30377 1.19649
upperneck 36.3518 -2.88285 0.695747
head 20.1274 -1.18016 -0.764626
rclavicle -1.09145e-014 1.86361e-015
rhumerus -38.5027 28.7994 -98.1636
rradius 104.68
rwrist 9.51871
rhand -17.0846 0.44574
rfingers 7.12502
rthumb 9.15368 -29.3356
lclavicle -1.09145e-014 1.86361e-015
lhumerus -72.2731 -22.0953 95.6638
lradius 101.247
lwrist -21.2784
lhand -18.0844 3.34981
lfingers 7.12502
lthumb 8.18893 33.1711
rfemur 7.52872 6.86345 24.4653
rtibia 15.9297
rfoot 34.066 -7.91216
rtoes -24.2443
lfemur -46.6911 -3.68173 -18.5221
ltibia 48.4782
lfoot 6.10426 18.4988
ltoes -8.35339
593
root 2.2873 16.4855 -31.2642 -162.216 2.47276 -179.723
lowerback -0.550388 3.7339 -3.62167
upperback -0.289883 5.00468 -0.818577
thorax -0.225605 2.51238 1.18709
lowerneck -35.3273 -0.391487 1.03388
upperneck 36.5805 -2.95597 0.737171
head 20.3995 -1.21508 -0.743532
rclavicle 7.06322e-014 -8.22472e-015
rhumerus -39.056 29.202 -97.8721
rradius 104.621
rwrist 9.2762
rhand -16.8144 0.568182
rfingers 7.12502
rthumb 9.4144 -29.2016
lclavicle 7.06322e-014 -8.22472e-015
lhumerus -72.2787 -22.1262 95.9065
lradius 101.652
lwrist -21.2868
lhand -18.2281 3.50351
lfingers 7.12502
lthumb 8.05017 33.3302
rfemur 7.76968 6.43475 24.3984
rtibia 16.8659
rfoot 35.6638 -8.56585
rtoes -21.6529
lfemur -45.8523 -3.8141 -18.6919
ltibia 45.0393
lfoot 6.16558 17.4432
ltoes -8.98502
594
root 2.2802 16.5081 -31.5979 -162.232 2.32194 -179.563
lowerback -0.957642 3.68177 -3.61148
upperback -0.231495 4.95402 -0.730258
thorax 0.0574306 2.48145 1.3039
lowerneck -35.8862 -0.423445 0.922986
upperneck 36.8308 -2.95 0.7263
head 20.7026 -1.22024 -0.737377
rclavicle -7.26476e-014 2.11279e-014
rhumerus -39.5436 29.565 -97.5672
rradius 104.399
rwrist 9.03559
rhand -16.4366 0.740082
rfingers 7.12502
rthumb 9.77891 -29.0129
lclavicle -7.26476e-014 2.11279e-014
lhumerus -72.0561 -22.0889 96.1481
lradius 101.991
lwrist -21.3519
lhand -18.4144 3.62313
lfingers 7.12502
lthumb 7.87035 33.4566
rfemur 7.83306 5.93651 24.5666
rtibia 18.2672
rfoot 36.7158 -9.40297
rtoes -19.9575
lfemur -45.0083 -3.92408 -18.6422
ltibia 42.0948
lfoot 6.50312 16.4313
ltoes -9.48472
595
root 2.27175 16.5164 -31.9264 -162.331 2.10894 -179.175
lowerback -1.24161 3.57423 -3.40703
upperback -0.158817 4.81847 -0.533726
thorax 0.297214 2.40773 1.41466
lowerneck -36.4486 -0.363251 0.926843
upperneck 37.0781 -2.83031 0.627449
head 21.0042 -1.18101 -0.764922
rclavicle -8.94531e-016 -7.36746e-015
rhumerus -40.0568 29.903 -97.3141
rradius 104.026
rwrist 8.8117
rhand -15.9798 0.912181
rfingers 7.12502
rthumb 10.2196 -28.8196
lclavicle -8.94531e-016 -7.36746e-015
lhumerus -71.6763 -21.9314 96.3731
lradius 102.269
lwrist -21.491
lhand -18.6235 3.6917
lfingers 7.12502
lthumb 7.66861 33.5327
rfemur 7.78609 5.42302 24.9952
rtibia 20.0489
rfoot 37.1727 -10.4053
rtoes -18.9998
lfemur -44.1868 -4.05138 -18.3374
ltibia 39.7597
lfoot 7.06532 15.4915
ltoes -9.7804
596
root 2.26269 16.5092 -32.2501 -162.545 1.8501 -178.632
lowerback -1.3978 3.41598 -3.07212
upperback -0.0545481 4.60587 -0.255276
thorax 0.505247 2.29607 1.52731
lowerneck -36.9712 -0.221262 1.03682
upperneck 37.2929 -2.6141 0.459348
head 21.2751 -1.10287 -0.818903
rclavicle 1.22315e-014 -3.08116e-015
rhumerus -40.5945 30.1778 -97.1007
rradius 103.508
rwrist 8.63827
rhand -15.4898 1.06598
rfingers 7.12502
rthumb 10.6923 -28.6419
lclavicle 1.22315e-014 -3.08116e-015
lhumerus -71.1386 -21.6769 96.5778
lradius 102.507
lwrist -21.6234
lhand -18.7945 3.71351
lfingers 7.12502
lthumb 7.50353 33.5604
rfemur 7.67656 4.91351 25.6039
rtibia 22.1828
rfoot 36.9923 -11.4577
rtoes -18.7021
lfemur -43.3742 -4.23092 -17.8484
ltibia 38.1003
lfoot 7.78662 14.6319
ltoes -9.86601
597
root 2.25272 16.4858 -32.5703 -162.888 1.55808 -177.978
lowerback -1.41341 3.23093 -2.61187
upperback 0.0665449 4.3502 0.0702416
thorax 0.659311 2.16512 1.60797
lowerneck -37.4234 -0.0495183 1.17422
upperneck 37.4795 -2.3684 0.290345
head 21.5129 -1.01259 -0.869129
rclavicle 1.44989e-014 -5.49143e-015
rhumerus -41.2156 30.3014 -96.9247
rradius 102.865
rwrist 8.56839
rhand -15.0133 1.16679
rfingers 7.12502
rthumb 11.1519 -28.5169
lclavicle 1.44989e-014 -5.49143e-015
lhumerus -70.4985 -21.4065 96.7888
lradius 102.679
lwrist -21.8001
lhand -18.9795 3.68089
lfingers 7.12502
lthumb 7.32493 33.5341
rfemur 7.50837 4.40407 26.3284
rtibia 24.6648
rfoot 36.2555 -12.4106
rtoes -18.6077
lfemur -42.5575 -4.45892 -17.2425
ltibia 37.122
lfoot 8.58854 13.8587
ltoes -9.7621
598
root 2.24202 16.4462 -32.8877 -163.366 1.27696 -177.312
lowerback -1.30188 3.02067 -2.11703
upperback 0.201752 4.05913 0.395962
thorax 0.759615 2.01913 1.66077
lowerneck -37.7229 0.160863 1.36311
upperneck 37.608 -2.09991 0.131624
head 21.6749 -0.90849 -0.914336
rclavicle 1.19768e-014 4.47266e-016
rhumerus -41.9339 30.2617 -96.8045
rradius 102.101
rwrist 8.62609
rhand -14.5983 1.18316
rfingers 7.12502
rthumb 11.5522 -28.4785
lclavicle 1.19768e-014 4.47266e-016
lhumerus -69.7886 -21.1328 96.9949
lradius 102.82
lwrist -21.9094
lhand -19.1419 3.61777
lfingers 7.12502
lthumb 7.16819 33.4764
rfemur 7.26744 3.89816 27.044
rtibia 27.5227
rfoot 35.0738 -13.2034
rtoes -18.428
lfemur -41.6893 -4.70744 -16.658
ltibia 36.7557
lfoot 9.42566 13.1732
ltoes -9.11254
599
root 2.23062 16.3917 -33.2028 -163.896 0.978845 -176.71
lowerback -1.14592 2.82355 -1.57975
upperback 0.312344 3.78737 0.66169
thorax 0.81423 1.88545 1.62519
lowerneck -37.8016 0.315428 1.49144
upperneck 37.6513 -1.91581 0.0596047
head 21.7246 -0.834666 -0.924201
rclavicle 2.7805e-014 3.8763e-015
rhumerus -42.7807 29.8912 -96.698
rradius 101.238
rwrist 8.82754
rhand -14.2189 1.08713
rfingers 7.12502
rthumb 11.9181 -28.5536
lclavicle 2.7805e-014 3.8763e-015
lhumerus -69.0694 -21.0243 97.2552
lradius 102.91
lwrist -22.0058
lhand -19.2951 3.5419
lfingers 7.12502
lthumb 7.02034 33.4055
rfemur 6.85798 3.33218 27.6576
rtibia 30.7447
rfoot 33.5913 -13.7635
rtoes -18.4795
lfemur -40.8129 -4.9339 -16.2138
ltibia 36.9008
lfoot 10.1695 12.649
ltoes -8.20906
600
root 2.21885 16.3245 -33.5137 -164.391 0.644385 -176.271
lowerback -0.976996 2.57317 -1.13483
upperback 0.2876 3.44756 0.83143
thorax 0.723319 1.71994 1.53709
lowerneck -37.4295 0.50554 1.70334
upperneck 37.6191 -1.76582 0.0305901
head 21.6054 -0.76568 -0.933324
rclavicle -6.06293e-015 -5.46658e-015
rhumerus -43.9315 29.3015 -96.7869
rradius 100.278
rwrist 9.16498
rhand -13.8781 0.875419
rfingers 7.12502
rthumb 12.2466 -28.746
lclavicle -6.06293e-015 -5.46658e-015
lhumerus -68.5341 -20.9556 97.5281
lradius 102.973
lwrist -22.0445
lhand -19.4664 3.45724
lfingers 7.12502
lthumb 6.85492 33.3263
rfemur 6.1814 2.65823 28.0565
rtibia 34.2964
rfoot 32.0246 -14.1934
rtoes -18.5714
lfemur -39.9617 -5.10724 -16.0327
ltibia 37.435
lfoot 10.6266 12.3674
ltoes -7.28823
601
root 2.20658 16.2469 -33.8223 -164.873 0.367163 -176.019
lowerback -0.806488 2.36235 -0.785862
upperback 0.203705 3.16281 0.892431
thorax 0.567145 1.58128 1.39117
lowerneck -36.8298 0.60878 1.80072
upperneck 37.5368 -1.73685 0.125144
head 21.3954 -0.744098 -0.891209
rclavicle -7.62836e-015 -5.96354e-016
rhumerus -45.2072 28.3818 -96.8492
rradius 99.2349
rwrist 9.62254
rhand -13.5734 0.547159
rfingers 7.12502
rthumb 12.5405 -29.0565
lclavicle -7.62836e-015 -5.96354e-016
lhumerus -68.0427 -21.0947 97.8774
lradius 102.981
lwrist -22.0491
lhand -19.6673 3.39503
lfingers 7.12502
lthumb 6.66101 33.2703
rfemur 5.28765 1.93919 28.1849
rtibia 38.1164
rfoot 30.4719 -14.6084
rtoes -18.8186
lfemur -39.0303 -5.16319 -16.1423
ltibia 38.2523
lfoot 10.6214 12.4764
ltoes -6.56406
